<svg width="20" height="20" viewBox="0 0 20 20" fill="none" xmlns="http://www.w3.org/2000/svg">
<path fill-rule="evenodd" clip-rule="evenodd" d="M18.3327 10.0001C18.3327 14.6025 14.6017 18.3334 9.99935 18.3334C5.39698 18.3334 1.66602 14.6025 1.66602 10.0001C1.66602 5.39771 5.39698 1.66675 9.99935 1.66675C14.6017 1.66675 18.3327 5.39771 18.3327 10.0001ZM13.358 7.47481C13.602 7.71888 13.602 8.11461 13.358 8.35869L9.19129 12.5254C8.94721 12.7694 8.55148 12.7694 8.30741 12.5254L6.64074 10.8587C6.39666 10.6146 6.39666 10.2189 6.64074 9.97481C6.88482 9.73073 7.28055 9.73073 7.52462 9.97481L8.74935 11.1995L10.6117 9.33717L12.4741 7.47481C12.7182 7.23073 13.1139 7.23073 13.358 7.47481Z" fill="#13C296"/>
</svg>
