<svg width="25" height="25" viewBox="0 0 25 25" fill="none" xmlns="http://www.w3.org/2000/svg">
<path d="M12.4805 1C18.8617 1 23.9619 5.94718 23.9619 11.9609C23.9618 17.9746 18.8616 22.9219 12.4805 22.9219C11.4159 22.9218 10.3778 22.7838 9.36328 22.5098L9.34961 22.5068L9.33691 22.5029L9.06055 22.4365L9.04785 22.4336L9.03418 22.4307C7.79619 22.1677 6.50641 22.2903 5.33887 22.7822L5.10742 22.8848L4.58691 23.124C3.61338 23.5605 2.88428 23.8212 2.37793 23.9355C2.30742 23.9515 2.24426 23.9623 2.18848 23.9717C2.24264 23.707 2.36477 23.3263 2.5918 22.8125C3.33497 21.1304 3.29189 19.2056 2.47656 17.5576H2.47754L2.27441 17.1357C1.41117 15.284 1.00004 13.5624 1 11.9609C1 5.94727 6.09942 1.00015 12.4805 1Z" stroke="#355DEE" stroke-width="2"/>
<path d="M9.16972 12.5014C9.16972 13.2563 8.59854 13.8683 7.89394 13.8683C7.18935 13.8683 6.61816 13.2563 6.61816 12.5014C6.61816 11.7465 7.18935 11.1345 7.89394 11.1345C8.59854 11.1345 9.16972 11.7465 9.16972 12.5014Z" fill="#355DEE"/>
<path d="M14.2728 12.5014C14.2728 13.2563 13.7017 13.8683 12.9971 13.8683C12.2925 13.8683 11.7213 13.2563 11.7213 12.5014C11.7213 11.7465 12.2925 11.1345 12.9971 11.1345C13.7017 11.1345 14.2728 11.7465 14.2728 12.5014Z" fill="#355DEE"/>
<path d="M19.376 12.5014C19.376 13.2563 18.8048 13.8683 18.1002 13.8683C17.3956 13.8683 16.8244 13.2563 16.8244 12.5014C16.8244 11.7465 17.3956 11.1345 18.1002 11.1345C18.8048 11.1345 19.376 11.7465 19.376 12.5014Z" fill="#355DEE"/>
</svg>
